<svg t="1677406603840" class="icon" viewBox="0 0 1024 1024" version="1.1" xmlns="http://www.w3.org/2000/svg" p-id="3217"
    width="200" height="200">
    <path
        d="M955.733333 540.01664c0 245.067093-198.662827 391.529813-443.733333 391.529813S68.266667 785.083733 68.266667 540.01664c0-245.06368 197.89824-380.255573 443.733333-320.6144 252.931413-71.461547 443.733333 75.55072 443.733333 320.6144z"
        fill="#FF3000" p-id="3218"></path>
    <path
        d="M512 952.026453c-127.16032 0-243.26144-38.58432-326.915413-108.642986C95.26272 768.160427 47.786667 663.258453 47.786667 540.01664c0-105.270613 34.597547-194.9184 100.05504-259.249493 62.897493-61.815467 152.19712-95.860053 251.450026-95.860054 36.420267 0 74.181973 4.488533 112.315734 13.349547 42.533547-11.5712 84.39808-17.431893 124.511573-17.431893 98.679467 0 183.545173 34.443947 245.425493 99.607893C943.476053 345.6512 976.213333 435.41504 976.213333 540.01664c0 123.241813-47.476053 228.143787-137.29792 303.366827-83.653973 70.058667-199.755093 108.642987-326.915413 108.642986zM399.28832 225.867093C213.54496 225.867093 88.746667 352.116053 88.746667 540.01664c0 218.4704 174.04928 371.049813 423.253333 371.049813 249.207467 0 423.253333-152.579413 423.253333-371.049813 0-190.344533-120.214187-318.231893-299.137706-318.231893-37.973333 0-77.861547 5.829973-118.54848 17.32608-3.386027 0.955733-6.970027 1.024-10.3936 0.19456-36.75136-8.915627-73.048747-13.438293-107.885227-13.438294z"
        fill="#FF601A" p-id="3219"></path>
    <path
        d="M371.053227 831.962453a20.466347 20.466347 0 0 1-6.331734-1.010346c-56.620373-18.40128-106.55744-50.930347-144.411306-94.071467C179.882667 690.81088 156.501333 635.818667 152.68864 577.8432a20.48 20.48 0 0 1 19.094187-21.78048c11.24352-0.730453 21.036373 7.806293 21.78048 19.094187 6.311253 96.017067 80.182613 183.156053 183.821653 216.838826a20.48 20.48 0 0 1-6.331733 39.96672z"
        fill="#FFFFFF" p-id="3220"></path>
    <path d="M172.31872 475.32032m-31.32416 0a31.32416 31.32416 0 1 0 62.64832 0 31.32416 31.32416 0 1 0-62.64832 0Z"
        fill="#FFFFFF" p-id="3221"></path>
    <path
        d="M450.952533 292.430507c-54.401707 0-94.64832-15.65696-119.61344-47.7184-40.76544-52.33664-22.770347-125.760853-21.981866-128.877227 2.409813-9.54368 10.99776-15.916373 20.609706-15.916373 0.914773 0 1.8432 0.136533 2.771627 0.252586a21.316267 21.316267 0 0 1 18.520747 21.398187c-1.419947 116.44928 110.025387 128.8192 114.773333 129.286827a21.285547 21.285547 0 0 1 19.176107 21.715626c-0.279893 11.14112-9.110187 19.575467-20.247894 20.11136-4.744533 0.22528-9.45152-0.259413-13.9776-0.259413-0.01024 0.006827-0.017067 0.006827-0.03072 0.006827z"
        fill="#5DA500" p-id="3222"></path>
    <path
        d="M329.980587 121.350827c-1.672533 137.304747 133.952853 150.698667 133.952853 150.698666a269.994667 269.994667 0 0 1-12.980907 0.31744c-159.095467 0-120.971947-151.016107-120.971946-151.016106m-0.034134-42.554027a42.349227 42.349227 0 0 0-27.0336 9.728 42.451627 42.451627 0 0 0-9.8304 11.636053 42.3936 42.3936 0 0 0-4.645546 11.9808c-3.150507 13.24032-18.51392 88.95488 26.129066 146.261334 29.211307 37.49888 75.096747 56.511147 136.3968 56.511146 4.88448 0 9.939627-0.12288 15.02208-0.36864 22.38464-1.078613 40.400213-19.298987 40.802987-41.704106 0.402773-22.350507-16.257707-41.1648-38.505813-43.124054-2.14016-0.273067-27.839147-3.805867-51.90656-19.17952-29.7984-19.029333-44.148053-47.786667-43.851094-87.883093 0.01024-0.433493 0.017067-0.873813 0.017067-1.307307 0-22.831787-17.974613-41.458347-40.5504-42.502826a40.96 40.96 0 0 0-2.044587-0.047787z"
        fill="#167203" p-id="3223"></path>
    <path
        d="M606.5664 318.211413c-53.009067 0-97.35168-34.48832-99.211947-35.956053a21.271893 21.271893 0 0 1 22.091094-36.020907c19.872427 9.17504 39.253333 13.824 57.606826 13.824 68.246187 0 106.9056-65.26976 107.287894-65.928533a21.333333 21.333333 0 0 1 18.455893-10.625707c3.099307 0 6.239573 0.67584 9.202347 2.106027a21.248 21.248 0 0 1 10.594986 26.873173c-34.123093 87.391573-87.371093 105.728-126.027093 105.728z"
        fill="#5DA500" p-id="3224"></path>
    <path
        d="M712.77568 204.7488c-28.173653 72.1408-69.25312 92.187307-106.20928 92.187307-46.24384 0-86.043307-31.382187-86.043307-31.382187 24.39168 11.257173 46.58176 15.786667 66.525867 15.786667 81.99168 0 125.72672-76.591787 125.72672-76.591787m-0.013653-42.87488c-14.77632 0-28.96896 7.703893-36.703574 21.367467-0.08192 0.139947-0.167253 0.273067-0.242346 0.416426-2.556587 4.13696-35.188053 55.135573-88.767147 55.135574-15.250773 0-31.634773-3.9936-48.687787-11.86816a42.540373 42.540373 0 0 0-54.101333 16.387413 42.550613 42.550613 0 0 0 9.925973 55.6544c5.259947 4.1472 53.097813 40.523093 112.384 40.523093 30.375253 0 58.026667-9.335467 82.189654-27.743573 26.10176-19.89632 47.353173-50.264747 63.17056-90.28608 1.426773-3.341653 2.440533-6.90176 2.976426-10.615467 2.676053-18.2272-6.61504-36.775253-23.917226-44.88192a42.779307 42.779307 0 0 0-18.2272-4.089173z"
        fill="#167203" p-id="3225"></path>
    <path
        d="M498.793813 282.064213c-3.027627 0-4.75136-0.12288-4.75136-0.12288-10.202453-0.70656-18.530987-8.574293-19.729066-18.732373s4.928853-19.735893 14.68416-22.797653c79.752533-25.04704 60.65152-103.266987 58.207573-112.100694-3.027627-10.9568 3.08224-22.398293 13.892267-25.931093a21.224107 21.224107 0 0 1 26.487466 12.649813c20.46976 54.084267 20.34688 96.7168-0.36864 126.713174-25.838933 37.413547-74.205867 40.321707-88.4224 40.321706z"
        fill="#5DA500" p-id="3226"></path>
    <path
        d="M567.688533 122.565973c49.861973 131.734187-48.930133 138.222933-68.89472 138.222934-2.184533 0-3.423573-0.075093-3.423573-0.075094 102.52288-32.197973 72.318293-138.14784 72.318293-138.14784m-0.310613-42.871466c-4.488533 0-9.045333 0.723627-13.513387 2.245973-21.661013 7.38304-33.69984 30.214827-27.14624 52.11136 0.484693 1.942187 4.908373 20.62336 0.94208 40.331947-4.621653 22.99904-18.926933 37.536427-45.03552 45.73184a42.550613 42.550613 0 0 0 10.089814 83.060053c0.771413 0.0512 2.911573 0.160427 6.079146 0.160427 16.827733 0 74.19904-3.570347 105.929387-49.50016 24.92416-36.089173 25.849173-85.323093 2.75456-146.336427-6.447787-17.03936-22.77376-27.805013-40.09984-27.805013z"
        fill="#167203" p-id="3227"></path>
    <path
        d="M413.52192 344.971947c-65.3824 0-89.391787-70.61504-90.381653-73.618774a21.271893 21.271893 0 0 1 36.683093-20.114773c18.561707 22.729387 39.44448 33.774933 63.832747 33.774933 33.30048 0 61.528747-21.108053 61.801813-21.323093a21.21728 21.21728 0 0 1 13.0048-4.440747 21.27872 21.27872 0 0 1 14.39744 36.949334c-35.273387 32.365227-68.693333 48.77312-99.33824 48.77312z"
        fill="#5DA500" p-id="3228"></path>
    <path
        d="M343.3472 264.700587c25.951573 31.77472 54.685013 41.591467 80.308907 41.591466 41.495893 0 74.816853-25.767253 74.816853-25.767253-34.89792 32.02048-62.88384 43.175253-84.95104 43.175253-50.742613 0-70.17472-58.999467-70.17472-58.999466M343.32672 222.149973A42.554027 42.554027 0 0 0 302.933333 278.009173c10.79296 32.771413 46.2336 88.23808 110.588587 88.23808 36.017493 0 74.141013-18.172587 113.319253-54.00576 1.324373-1.184427 2.577067-2.450773 3.744427-3.7888 13.74208-15.745707 14.363307-39.662933 0.474453-55.852373a42.581333 42.581333 0 0 0-32.365226-14.984533c-9.15456 0-18.35008 2.983253-26.098347 9.13408-1.949013 1.406293-24.128853 16.991573-48.933547 16.991573-11.229867 0-28.35456-2.69312-47.356586-25.9584a42.540373 42.540373 0 0 0-32.979627-15.633067z"
        fill="#167203" p-id="3229"></path>
    <path
        d="M505.79456 318.440107c-30.262613 0-53.087573-17.066667-53.087573-39.693654 0-22.6304 22.82496-39.697067 53.087573-39.697066 30.26944 0 53.0944 17.066667 53.0944 39.697066 0 22.6304-22.82496 39.693653-53.0944 39.693654z"
        fill="#5DA500" p-id="3230"></path>
    <path
        d="M505.79456 260.328107c17.568427 0 31.822507 8.250027 31.822507 18.42176 0 10.171733-14.25408 18.418347-31.822507 18.418346s-31.812267-8.246613-31.812267-18.418346c0-10.175147 14.24384-18.42176 31.812267-18.42176m0-42.550614c-42.3936 0-74.36288 26.210987-74.36288 60.96896 0 34.757973 31.96928 60.965547 74.36288 60.965547 42.3936 0 74.37312-26.210987 74.37312-60.965547 0-34.757973-31.976107-60.96896-74.37312-60.96896z"
        fill="#167203" p-id="3231"></path>
    <path
        d="M565.111467 450.993493s52.08064-72.58112-3.539627-135.253333c-10.88512-12.264107-31.3856-1.286827-61.433173 16.401067 0 0 17.2544 3.945813 31.361706 32.09216 14.107307 28.146347 33.611093 86.760107 33.611094 86.760106z"
        fill="#5DA500" p-id="3232"></path>
    <path
        d="M565.11488 471.473493a20.483413 20.483413 0 0 1-19.43552-14.015146c-0.191147-0.57344-19.206827-57.555627-32.484693-84.04992-7.91552-15.793493-16.05632-20.39808-18.169174-21.374294-8.454827-1.191253-14.250667-7.39328-16.042666-15.827626-1.83296-8.615253 3.177813-17.247573 10.769066-21.715627 25.081173-14.76608 42.786133-24.44288 59.692374-24.44288 10.929493 0 20.421973 4.181333 27.446613 12.09344 52.585813 59.255467 26.176853 131.085653 4.864 160.78848a20.483413 20.483413 0 0 1-16.64 8.543573z m-27.958613-136.32512c4.314453 5.33504 8.628907 11.881813 12.653226 19.909974 5.147307 10.27072 10.881707 24.122027 16.186027 37.85728 2.413227-18.80064-0.641707-40.94976-18.148693-61.733547-2.669227 0.48128-6.4512 1.969493-10.69056 3.966293z"
        fill="#167203" p-id="3233"></path>
</svg>